<svg width="36" height="48" viewBox="0 0 36 48" fill="none" xmlns="http://www.w3.org/2000/svg">
<g id="fa-solid:award" clip-path="url(#clip0_36_1422)">
<path id="Vector" d="M9.06417 33.9949C8.2531 33.1802 8.6759 33.4099 6.71964 32.8839C5.83204 32.6449 5.05177 32.1855 4.34617 31.6352L0.111635 42.0639C-0.298098 43.0736 0.467235 44.1705 1.55177 44.1292L6.4695 43.9408L9.8519 47.5296C10.5986 48.3208 11.909 48.0742 12.3187 47.0646L17.1767 35.1002C16.165 35.6664 15.0422 35.9983 13.8811 35.9983C12.0611 35.9983 10.3512 35.2867 9.06417 33.9949ZM35.7276 42.0639L31.4931 31.6352C30.7875 32.1864 30.0072 32.6449 29.1196 32.8839C27.1531 33.4127 27.5843 33.1821 26.7751 33.9949C25.488 35.2867 23.7772 35.9983 21.9572 35.9983C20.7962 35.9983 19.6734 35.6655 18.6616 35.1002L23.5196 47.0646C23.9294 48.0742 25.2407 48.3208 25.9864 47.5296L29.3698 43.9408L34.2875 44.1292C35.372 44.1705 36.1374 43.0727 35.7276 42.0639ZM24.5463 31.8733C25.9724 30.4155 26.1358 30.5411 28.1667 29.9852C29.4631 29.6299 30.4767 28.5939 30.8239 27.2683C31.522 24.6058 31.341 24.9274 33.2459 22.9792C34.1951 22.0089 34.5656 20.5942 34.2184 19.2686C33.5212 16.608 33.5203 16.9792 34.2184 14.3158C34.5656 12.9902 34.1951 11.5755 33.2459 10.6052C31.341 8.65706 31.522 8.97769 30.8239 6.31613C30.4767 4.9905 29.4631 3.95456 28.1667 3.59925C25.5646 2.88581 25.8782 3.07238 23.9714 1.12331C23.0222 0.153002 21.638 -0.226685 20.3416 0.128627C17.7404 0.841127 18.1035 0.842064 15.4976 0.128627C14.2012 -0.226685 12.8171 0.152065 11.8679 1.12331C9.96297 3.07144 10.2766 2.88581 7.6735 3.59925C6.3771 3.95456 5.3635 4.9905 5.0163 6.31613C4.3191 8.97769 4.49924 8.65706 2.5943 10.6052C1.6451 11.5755 1.27364 12.9902 1.62177 14.3158C2.31897 16.9746 2.3199 16.6033 1.62177 19.2677C1.27457 20.5933 1.6451 22.008 2.5943 22.9792C4.49924 24.9274 4.31817 24.6058 5.0163 27.2683C5.3635 28.5939 6.3771 29.6299 7.6735 29.9852C9.7623 30.5571 9.91817 30.4671 11.293 31.8733C12.5278 33.1361 14.4514 33.3621 15.9354 32.4189C16.5288 32.0405 17.2172 31.8396 17.9201 31.8396C18.623 31.8396 19.3114 32.0405 19.9048 32.4189C21.3879 33.3621 23.3115 33.1361 24.5463 31.8733ZM9.11457 16.4946C9.11457 11.523 13.057 7.49269 17.9196 7.49269C22.7823 7.49269 26.7247 11.523 26.7247 16.4946C26.7247 21.4661 22.7823 25.4964 17.9196 25.4964C13.057 25.4964 9.11457 21.4661 9.11457 16.4946Z" fill="#00A0C1"/>
</g>
<defs>
<clipPath id="clip0_36_1422">
<rect width="35.84" height="48" fill="white"/>
</clipPath>
</defs>
</svg>
